<svg width="200" height="200" viewBox="0 0 200 200" fill="none" xmlns="http://www.w3.org/2000/svg">
<path d="M153.333 52H46.6665V84H51.9998V142.667C51.9998 145.496 53.1236 148.209 55.124 150.209C57.1244 152.21 59.8375 153.333 62.6665 153.333H137.333C140.162 153.333 142.875 152.21 144.876 150.209C146.876 148.209 148 145.496 148 142.667V84H153.333V52ZM57.3332 62.6667H142.667V73.3333H57.3332V62.6667ZM137.333 142.667H62.6665V84H137.333V142.667ZM83.9998 94.6667H116C116 97.4956 114.876 100.209 112.876 102.209C110.875 104.21 108.162 105.333 105.333 105.333H94.6665C91.8375 105.333 89.1244 104.21 87.124 102.209C85.1236 100.209 83.9998 97.4956 83.9998 94.6667Z" fill="#333333"/>
</svg>
